<svg width="213" height="65" viewBox="0 0 213 65" fill="none" xmlns="http://www.w3.org/2000/svg">
<path fill-rule="evenodd" clip-rule="evenodd" d="M105.236 7.08946C107.288 4.82801 110.617 4.82801 112.67 7.08946C114.722 9.35109 114.722 13.0178 112.67 15.2794L100.154 29.0677C96.5607 23.7622 96.9511 16.2166 101.325 11.3978L105.236 7.08946Z" fill="#4F9E91"/>
<path fill-rule="evenodd" clip-rule="evenodd" d="M123.128 38.1979C125.181 40.4594 125.181 44.1263 123.128 46.3877C121.076 48.6493 117.747 48.6493 115.694 46.3877L103.179 32.5996C107.994 28.6409 114.844 29.0708 119.218 33.8897L123.128 38.1979Z" fill="#EBE1C5"/>
<path fill-rule="evenodd" clip-rule="evenodd" d="M94.8904 57.91C92.8377 60.1716 89.5093 60.1716 87.4566 57.91C85.4038 55.6484 85.4038 51.9817 87.4566 49.72L99.972 35.9319C103.565 41.2374 103.175 48.783 98.801 53.6017L94.8904 57.91Z" fill="#EBCC6E"/>
<path fill-rule="evenodd" clip-rule="evenodd" d="M76.9986 26.8005C74.9458 24.5389 74.9458 20.8722 76.9986 18.6106C79.0515 16.349 82.3797 16.349 84.4326 18.6106L96.9481 32.3988C92.1323 36.3576 85.2831 35.9275 80.9092 31.1088L76.9986 26.8005Z" fill="#ED834E"/>
<path fill-rule="evenodd" clip-rule="evenodd" d="M102.439 56.2211C105.466 52.5134 106.873 47.769 106.659 43.0978L112.67 49.7197C112.685 49.7361 112.7 49.7526 112.715 49.7691V54.4967C112.715 57.695 110.362 60.2878 107.459 60.2878C105.101 60.2878 103.105 58.5773 102.439 56.2211Z" fill="#ED834E"/>
<path fill-rule="evenodd" clip-rule="evenodd" d="M78.5316 35.1166C81.8969 38.4515 86.2034 40.0014 90.4434 39.7663L84.4329 46.3882C84.4178 46.4046 84.4029 46.4213 84.3881 46.4377H80.0969C77.1938 46.4379 74.8403 43.8449 74.8403 40.6466C74.8403 38.049 76.3929 35.8506 78.5316 35.1166Z" fill="#4F9E91"/>
<path fill-rule="evenodd" clip-rule="evenodd" d="M121.595 29.8832C118.23 26.5483 113.923 24.9984 109.683 25.2334L115.694 18.6117C115.709 18.5952 115.723 18.5786 115.738 18.562H120.03C122.933 18.562 125.287 21.1549 125.287 24.3532C125.287 26.951 123.734 29.1493 121.595 29.8832Z" fill="#EBCC6E"/>
<path fill-rule="evenodd" clip-rule="evenodd" d="M97.6877 8.77814C94.6607 12.4857 93.2539 17.2301 93.4672 21.9015L87.4567 15.2796C87.4417 15.2632 87.4267 15.2467 87.4116 15.2302V10.5026C87.4116 7.30429 89.7651 4.71136 92.6682 4.71136C95.0262 4.71136 97.0215 6.422 97.6877 8.77814Z" fill="#EBE1C5"/>
<path fill-rule="evenodd" clip-rule="evenodd" d="M92.6684 0C87.4033 0 83.135 4.70234 83.135 10.5029V12.5457C79.9674 11.6339 76.457 12.5452 73.9747 15.2799C70.2517 19.3815 70.2517 26.0316 73.9747 30.1333L75.2857 31.5776C72.4607 33.4005 70.5635 36.7796 70.5635 40.6469C70.5635 46.4475 74.8318 51.1498 80.0969 51.1498H81.9509C81.1233 54.6395 81.9505 58.507 84.4327 61.2416C88.1558 65.3432 94.192 65.3432 97.9151 61.2416L101.826 56.9334C105.275 53.1329 106.886 48.0739 106.659 43.0979L112.67 49.7198C116.393 53.8215 122.429 53.8215 126.152 49.7198C129.876 45.6181 129.876 38.9681 126.152 34.8666L124.842 33.4224C127.666 31.5995 129.563 28.2204 129.563 24.3531C129.563 18.5525 125.294 13.8502 120.03 13.8502H118.176C119.004 10.3603 118.176 6.49283 115.694 3.75812C111.971 -0.343531 105.935 -0.343531 102.212 3.75812L98.3011 8.06642C94.8515 11.8669 93.2403 16.9258 93.4677 21.9018L87.457 15.2799C87.4419 15.2634 87.427 15.247 87.4119 15.2305V10.5029C87.4119 7.30456 89.7653 4.71179 92.6684 4.71179C95.0265 4.71179 97.0218 6.42227 97.688 8.77841C97.8855 8.53657 98.0898 8.29913 98.301 8.06642L100.901 5.20248C99.2459 2.09018 96.1788 0 92.6684 0ZM115.739 18.562C115.724 18.5784 115.709 18.5951 115.694 18.6115L109.683 25.2333C113.924 24.9983 118.23 26.548 121.595 29.8831C123.734 29.1491 125.287 26.9507 125.287 24.3531C125.287 21.1547 122.934 18.562 120.03 18.562H115.739ZM84.3878 46.438C84.4027 46.4214 84.4177 46.4048 84.4327 46.3883L90.4432 39.7664C86.2032 40.0016 81.8969 38.4516 78.5316 35.1169C76.3929 35.8509 74.8402 38.0491 74.8402 40.6469C74.8402 43.8453 77.1938 46.438 80.0969 46.438H84.3878ZM78.3677 34.9523C78.2045 34.7862 78.0437 34.6159 77.8853 34.4414V34.4416C78.0437 34.6161 78.2045 34.7862 78.3677 34.9523ZM107.458 65C103.948 65 100.881 62.9097 99.2261 59.7974L101.826 56.9334C102.037 56.7007 102.241 56.4633 102.439 56.2214C103.105 58.5776 105.1 60.2882 107.458 60.2882C110.361 60.2882 112.715 57.6954 112.715 54.4971V49.7695C113.947 51.1089 115.427 52.0039 116.992 52.4542V54.4971C116.992 60.2977 112.723 65 107.458 65ZM112.67 7.08977C110.617 4.82831 107.289 4.82831 105.236 7.08977L101.325 11.3981C96.9514 16.2169 96.561 23.7625 100.154 29.068L112.67 15.2797C114.723 13.0181 114.723 9.35139 112.67 7.08977ZM123.127 46.3882C125.181 44.1265 125.181 40.4598 123.127 38.1982L119.217 33.8899C114.843 29.0712 107.994 28.6412 103.178 32.5999L115.694 46.3882C117.747 48.6498 121.076 48.6498 123.127 46.3882ZM94.8908 57.9099C92.8379 60.1715 89.5097 60.1715 87.4569 57.9099C85.4042 55.6483 85.4042 51.9816 87.4569 49.72L99.9724 35.9317C103.566 41.2372 103.175 48.7829 98.8014 53.6016L94.8908 57.9099ZM76.9988 18.6115C74.9461 20.8731 74.9461 24.5398 76.9988 26.8015L80.9094 31.1098C85.2835 35.9284 92.1325 36.3585 96.9482 32.3998L84.4327 18.6115C82.3799 16.3501 79.0517 16.3501 76.9988 18.6115Z" fill="#3D3A2C"/>
<path d="M0 21.2385H4.67521V37.2436H12.705V41.5794H0V21.2385Z" fill="white"/>
<path d="M21.1935 42.016C19.6263 42.016 18.2527 41.7055 17.0729 41.0848C15.8931 40.4445 14.9774 39.5715 14.3258 38.4658C13.692 37.3405 13.375 36.0505 13.375 34.5954C13.375 33.1405 13.692 31.8601 14.3258 30.7543C14.9774 29.6291 15.8931 28.7561 17.0729 28.1353C18.2527 27.495 19.6263 27.175 21.1935 27.175C22.7608 27.175 24.1342 27.495 25.314 28.1353C26.4939 28.7561 27.4008 29.6291 28.0346 30.7543C28.6862 31.8601 29.0119 33.1405 29.0119 34.5954C29.0119 36.0505 28.6862 37.3405 28.0346 38.4658C27.4008 39.5715 26.4939 40.4445 25.314 41.0848C24.1342 41.7055 22.7608 42.016 21.1935 42.016ZM21.1935 38.0292C22.1268 38.0292 22.8664 37.7286 23.4122 37.1272C23.9758 36.5063 24.2574 35.6625 24.2574 34.5954C24.2574 33.5285 23.9758 32.6943 23.4122 32.0929C22.8664 31.472 22.1268 31.1617 21.1935 31.1617C20.2602 31.1617 19.5118 31.472 18.9484 32.0929C18.4024 32.6943 18.1295 33.5285 18.1295 34.5954C18.1295 35.6625 18.4024 36.5063 18.9484 37.1272C19.5118 37.7286 20.2602 38.0292 21.1935 38.0292Z" fill="white"/>
<path d="M37.744 48.2725C36.8988 48.2725 36.0447 48.1852 35.1819 48.0106C34.3367 47.8359 33.6058 47.6032 32.9895 47.3122V43.762C34.3806 44.4215 35.9654 44.7514 37.744 44.7514C39.0295 44.7514 39.954 44.4603 40.5174 43.8784C41.0986 43.2964 41.3891 42.4428 41.3891 41.3175V40.4737C40.8785 40.9587 40.2445 41.3369 39.4873 41.6086C38.7477 41.8802 37.9553 42.016 37.11 42.016C35.7718 42.016 34.592 41.7055 33.5706 41.0848C32.5493 40.4639 31.748 39.5909 31.167 38.4658C30.6034 37.3405 30.3218 36.0505 30.3218 34.5954C30.3218 33.1211 30.6034 31.8213 31.167 30.6962C31.7304 29.5709 32.5228 28.7075 33.5442 28.1062C34.5655 27.4854 35.7366 27.175 37.0572 27.175C38.871 27.175 40.3677 27.7861 41.5475 29.0083V27.6114H46.038V40.6192C46.038 43.0441 45.3599 44.9261 44.0041 46.2646C42.6658 47.6032 40.5791 48.2725 37.744 48.2725ZM38.2723 38.0584C38.9943 38.0584 39.637 37.8547 40.2004 37.4473C40.764 37.0399 41.1601 36.4967 41.3891 35.8176V33.3733C41.1425 32.6943 40.7375 32.1607 40.1741 31.7727C39.6105 31.3655 38.9767 31.1617 38.2723 31.1617C37.3214 31.1617 36.5553 31.472 35.9743 32.0929C35.3931 32.6943 35.1026 33.5187 35.1026 34.5664C35.1026 35.6333 35.3931 36.4869 35.9743 37.1272C36.5553 37.748 37.3214 38.0584 38.2723 38.0584Z" fill="white"/>
<path d="M55.0363 42.016C53.4691 42.016 52.0956 41.7055 50.9158 41.0848C49.736 40.4445 48.8202 39.5715 48.1688 38.4658C47.5348 37.3405 47.2178 36.0505 47.2178 34.5954C47.2178 33.1405 47.5348 31.8601 48.1688 30.7543C48.8202 29.6291 49.736 28.7561 50.9158 28.1353C52.0956 27.495 53.4691 27.175 55.0363 27.175C56.6035 27.175 57.977 27.495 59.1568 28.1353C60.3366 28.7561 61.2435 29.6291 61.8775 30.7543C62.529 31.8601 62.8549 33.1405 62.8549 34.5954C62.8549 36.0505 62.529 37.3405 61.8775 38.4658C61.2435 39.5715 60.3366 40.4445 59.1568 41.0848C57.977 41.7055 56.6035 42.016 55.0363 42.016ZM55.0363 38.0292C55.9696 38.0292 56.7092 37.7286 57.2551 37.1272C57.8186 36.5063 58.1004 35.6625 58.1004 34.5954C58.1004 33.5285 57.8186 32.6943 57.2551 32.0929C56.7092 31.472 55.9696 31.1617 55.0363 31.1617C54.1031 31.1617 53.3546 31.472 52.7912 32.0929C52.2452 32.6943 51.9723 33.5285 51.9723 34.5954C51.9723 35.6625 52.2452 36.5063 52.7912 37.1272C53.3546 37.7286 54.1031 38.0292 55.0363 38.0292Z" fill="white"/>
<path d="M137.418 21.2385H142.094V41.5794H137.418V21.2385Z" fill="white"/>
<path d="M144.461 27.6114H148.952V29.0083C150.131 27.7861 151.628 27.175 153.441 27.175C154.762 27.175 155.934 27.4854 156.954 28.1062C157.977 28.7075 158.768 29.5709 159.331 30.6962C159.895 31.8019 160.178 33.0921 160.178 34.5664C160.178 36.0213 159.895 37.3212 159.331 38.4658C158.768 39.5909 157.977 40.4639 156.954 41.0848C155.951 41.7055 154.78 42.016 153.441 42.016C152.597 42.016 151.786 41.8705 151.012 41.5794C150.255 41.3079 149.62 40.9295 149.11 40.4445V47.9523H144.461V27.6114ZM152.227 38.0292C153.178 38.0292 153.944 37.719 154.524 37.0981C155.105 36.4773 155.397 35.6333 155.397 34.5664C155.397 33.4993 155.105 32.6653 154.524 32.0638C153.944 31.443 153.178 31.1326 152.227 31.1326C151.523 31.1326 150.888 31.3363 150.325 31.7437C149.761 32.1317 149.357 32.6653 149.11 33.3442V35.8176C149.357 36.4967 149.761 37.0399 150.325 37.4473C150.888 37.8353 151.523 38.0292 152.227 38.0292Z" fill="white"/>
<path d="M167.108 42.016C166.087 42.016 165.022 41.8996 163.912 41.6668C162.803 41.4534 161.921 41.143 161.271 40.7356V36.9817C161.992 37.4473 162.855 37.8353 163.859 38.1458C164.88 38.4366 165.813 38.5822 166.659 38.5822C167.275 38.5822 167.724 38.5336 168.005 38.4366C168.288 38.3397 168.429 38.1458 168.429 37.8547C168.429 37.6218 168.332 37.4375 168.139 37.3018C167.963 37.1466 167.627 36.9913 167.134 36.8362C166.659 36.6616 166.105 36.4773 165.47 36.2832C164.396 35.934 163.552 35.5752 162.935 35.2065C162.318 34.8379 161.861 34.3723 161.561 33.8098C161.262 33.2472 161.112 32.5391 161.112 31.6855C161.112 30.1722 161.649 29.0471 162.723 28.3099C163.815 27.5532 165.303 27.175 167.187 27.175C168.103 27.175 169.063 27.2817 170.066 27.495C171.088 27.7085 171.853 27.9898 172.365 28.339V32.0347C171.837 31.6467 171.131 31.3265 170.251 31.0744C169.389 30.8221 168.578 30.6962 167.821 30.6962C167.223 30.6962 166.756 30.764 166.421 30.8997C166.087 31.0162 165.92 31.2295 165.92 31.54C165.92 31.831 166.087 32.0541 166.421 32.2093C166.756 32.3644 167.355 32.5585 168.217 32.7912C168.781 32.9465 169.019 33.0143 168.93 32.9949C170.057 33.3248 170.928 33.6934 171.545 34.1008C172.162 34.5082 172.593 34.9932 172.84 35.5558C173.104 36.0989 173.236 36.7974 173.236 37.651C173.236 38.9896 172.708 40.0565 171.652 40.8519C170.612 41.628 169.097 42.016 167.108 42.016Z" fill="white"/>
<path d="M180.176 42.0162C178.434 42.0162 177.122 41.4826 176.242 40.4157C175.379 39.3486 174.947 37.9422 174.947 36.1962V27.6116H179.596V35.6141C179.596 37.2244 180.256 38.0294 181.577 38.0294C182.176 38.0294 182.722 37.8743 183.215 37.5638C183.707 37.2534 184.112 36.7976 184.429 36.1962V27.6116H189.078V41.5796H184.589V40.0665C184.043 40.7066 183.382 41.1916 182.607 41.5214C181.833 41.8512 181.022 42.0162 180.176 42.0162Z" fill="white"/>
<path d="M191.458 27.6114H195.765V29.1247C196.293 28.504 196.901 28.0286 197.587 27.6988C198.273 27.3495 199.004 27.175 199.779 27.175C200.73 27.175 201.488 27.3301 202.051 27.6406C202.633 27.951 203.098 28.4166 203.451 29.0373C203.979 28.4554 204.622 27.9994 205.379 27.6697C206.137 27.3399 206.903 27.175 207.677 27.175C209.35 27.175 210.539 27.6504 211.243 28.6009C211.947 29.5321 212.299 30.8803 212.299 32.6457V41.5794H207.862V33.3733C207.862 32.5973 207.73 32.0347 207.465 31.6855C207.202 31.3363 206.761 31.1617 206.146 31.1617C205.353 31.1617 204.709 31.472 204.217 32.0929C204.234 32.4226 204.243 32.9271 204.243 33.6061V41.5794H199.806V33.1696C199.806 32.4518 199.692 31.9376 199.463 31.6273C199.233 31.3169 198.828 31.1617 198.248 31.1617C197.349 31.1617 196.575 31.7145 195.923 32.8204V41.5794H191.458V27.6114Z" fill="white"/>
</svg>
