<svg width="295" height="65" viewBox="0 0 295 65" fill="none" xmlns="http://www.w3.org/2000/svg">
<path d="M41.8181 53.7964L2.33861 23.7941C-1.66215 20.7538 -0.302154 14.4236 4.6867 12.935L46.6463 0.388593C47.5351 0.0352544 48.4876 -0.0794439 49.4248 0.0540204C50.3619 0.187485 51.2566 0.565261 52.0347 1.156C52.8127 1.74673 53.4517 2.53339 53.8985 3.45067C54.3453 4.36796 54.5871 5.38942 54.6038 6.43028L52.1171 48.9767C51.8222 54.0268 45.8188 56.8367 41.8181 53.7964Z" fill="#E9327C"/>
<path d="M29.2965 61.2026L6.03799 11.092C5.50633 9.94563 5.27237 8.65975 5.36192 7.37618C5.45147 6.09261 5.86104 4.86122 6.54547 3.81781C7.22991 2.7744 8.16261 1.9595 9.24072 1.46298C10.3188 0.966462 11.5005 0.807614 12.6553 1.00395L55.7592 8.33301C56.7516 8.50176 57.6935 8.92762 58.5074 9.57555C59.3212 10.2235 59.9839 11.075 60.4409 12.0601C60.8978 13.0451 61.136 14.1356 61.1359 15.2419C61.1357 16.3482 60.8972 17.4386 60.44 18.4235L40.5836 61.205C40.0504 62.3481 39.2415 63.3071 38.2457 63.9767C37.25 64.6462 36.106 65.0003 34.9394 65C33.7729 64.9997 32.629 64.6452 31.6334 63.9752C30.6379 63.3053 29.8293 62.3459 29.2965 61.2026Z" fill="#1DACE3"/>
<path d="M54.4982 8.11773L33.0111 4.46411L6.62988 12.3556L17.1599 35.0508L41.8181 53.7965C42.3621 54.2054 42.9605 54.5186 43.5918 54.725L52.9577 34.5465L54.4982 8.11773Z" fill="#3A68B8"/>
<path d="M163.335 13.9749C163.335 13.095 163.572 12.2349 164.016 11.5033C164.459 10.7717 165.09 10.2014 165.828 9.86471C166.566 9.52799 167.378 9.43989 168.161 9.61155C168.944 9.78321 169.664 10.2069 170.229 10.8291C170.793 11.4513 171.178 12.244 171.334 13.107C171.49 13.97 171.41 14.8645 171.104 15.6774C170.798 16.4903 170.281 17.1851 169.617 17.674C168.953 18.1628 168.172 18.4237 167.373 18.4237C166.306 18.4117 165.285 17.9392 164.53 17.1074C163.775 16.2757 163.346 15.1511 163.335 13.9749ZM164.008 20.5985H170.74V45.3131H164.008V20.5985Z" fill="white"/>
<path d="M199.81 32.956C199.889 34.5896 199.673 36.2241 199.176 37.7655C198.678 39.307 197.91 40.7249 196.913 41.9377C195.917 43.1506 194.713 44.1345 193.37 44.8328C192.027 45.5311 190.572 45.9301 189.089 46.0067C187.841 46.0815 186.594 45.8497 185.438 45.3281C184.282 44.8065 183.245 44.0081 182.403 42.9907V55.2002H175.674V20.5987H182.403V22.9213C183.245 21.9044 184.282 21.1064 185.438 20.5852C186.594 20.064 187.841 19.8326 189.089 19.9077C190.572 19.984 192.027 20.3827 193.37 21.0808C194.712 21.7788 195.917 22.7625 196.913 23.9752C197.909 25.1878 198.678 26.6056 199.176 28.1469C199.673 29.6881 199.889 31.3225 199.81 32.956ZM193.081 32.956C193.054 31.7989 192.719 30.676 192.116 29.728C191.513 28.78 190.67 28.0489 189.692 27.6262C188.714 27.2035 187.644 27.108 186.617 27.3516C185.59 27.5953 184.651 28.1673 183.918 28.996C183.184 29.8248 182.689 30.8734 182.494 32.0108C182.298 33.1481 182.412 34.3236 182.82 35.3901C183.229 36.4567 183.913 37.3669 184.789 38.0069C185.664 38.6468 186.691 38.9881 187.742 38.988C188.464 39.0238 189.184 38.8911 189.855 38.5986C190.527 38.306 191.135 37.8603 191.639 37.2907C192.143 36.721 192.532 36.0403 192.781 35.2932C193.029 34.5462 193.132 33.7497 193.081 32.956Z" fill="white"/>
<path d="M220.583 37.8946C220.583 43.5799 216.096 46.0019 211.25 46.0019C209.292 46.1971 207.327 45.7407 205.607 44.6916C203.887 43.6426 202.493 42.0493 201.604 40.1178L207.436 36.4618C207.673 37.3546 208.181 38.1307 208.876 38.6602C209.57 39.1898 210.408 39.4407 211.25 39.3711C212.865 39.3711 213.671 38.8256 213.671 37.8389C213.671 35.1187 202.634 36.5539 202.634 28.0005C202.634 22.6134 206.761 19.8956 211.437 19.8956C213.191 19.835 214.928 20.2935 216.466 21.2235C218.005 22.1535 219.289 23.5209 220.184 25.1833L214.443 28.5945C214.192 27.9457 213.773 27.3928 213.238 27.0048C212.704 26.6167 212.077 26.4107 211.437 26.4125C210.271 26.4125 209.553 26.8974 209.553 27.7969C209.547 30.6335 220.583 28.7545 220.583 37.8946Z" fill="white"/>
<path d="M245.179 20.5982V45.3129H238.449V42.9854C237.672 44.0107 236.685 44.8185 235.57 45.3427C234.454 45.867 233.242 46.0927 232.032 46.0014C227.501 46.0014 223.644 42.4423 223.644 35.7679V20.5982H230.373V34.6866C230.316 35.2756 230.377 35.8712 230.551 36.4318C230.724 36.9925 231.007 37.5047 231.378 37.9328C231.75 38.3609 232.202 38.6946 232.702 38.9106C233.203 39.1267 233.74 39.22 234.277 39.1839C236.744 39.1839 238.458 37.6032 238.458 34.0926V20.5982H245.179Z" fill="white"/>
<path d="M283.752 30.1355V45.3125H277.022V30.7804C277.022 28.3099 275.944 26.7268 273.792 26.7268C271.547 26.7268 270.293 28.4578 270.293 31.3744V45.3125H263.561V30.7804C263.561 28.3099 262.485 26.7268 260.331 26.7268C258.088 26.7268 256.832 28.4578 256.832 31.3744V45.3125H250.102V20.5978H256.843V22.8622C257.54 21.8539 258.456 21.0543 259.506 20.5363C260.556 20.0183 261.708 19.7986 262.855 19.8972C264.007 19.8351 265.154 20.1028 266.184 20.6743C267.214 21.2458 268.092 22.1015 268.733 23.158C269.479 22.0526 270.467 21.1736 271.605 20.6033C272.743 20.033 273.994 19.7901 275.24 19.8972C280.389 19.9068 283.752 23.9581 283.752 30.1355Z" fill="white"/>
<path d="M289.454 20.4454C292.213 20.4454 294.449 17.9814 294.449 14.9419C294.449 11.9025 292.213 9.43848 289.454 9.43848C286.695 9.43848 284.458 11.9025 284.458 14.9419C284.458 17.9814 286.695 20.4454 289.454 20.4454Z" fill="white"/>
<path d="M71.4541 9.2301H78.1859V45.3129H71.4541V9.2301ZM81.9974 32.9556C81.99 30.3645 82.6806 27.8293 83.9819 25.6709C85.2831 23.5125 87.1365 21.8281 89.3072 20.8309C91.478 19.8337 93.8685 19.5685 96.1761 20.069C98.4838 20.5695 100.605 21.8131 102.27 23.6424C103.936 25.4717 105.072 27.8044 105.533 30.3451C105.995 32.8858 105.762 35.5203 104.863 37.9149C103.965 40.3095 102.442 42.3567 100.487 43.797C98.5318 45.2374 96.2327 46.0063 93.8808 46.0063C92.3188 46.0247 90.7691 45.7001 89.3222 45.0512C87.8753 44.4024 86.5603 43.4424 85.454 42.2274C84.3477 41.0124 83.4722 39.5667 82.8787 37.9748C82.2852 36.3828 81.9856 34.6765 81.9974 32.9556ZM99.0479 32.9556C99.0215 31.8379 98.6966 30.7536 98.1137 29.8383C97.5309 28.923 96.716 28.2174 95.771 27.8097C94.826 27.402 93.7929 27.3103 92.8009 27.5461C91.8088 27.7819 90.9019 28.3347 90.1936 29.1353C89.4853 29.936 89.0069 30.949 88.8184 32.0476C88.63 33.1462 88.7397 34.2817 89.1339 35.3119C89.5281 36.3422 90.1894 37.2215 91.0348 37.84C91.8803 38.4584 92.8726 38.7884 93.8874 38.7888C94.5824 38.8106 95.2739 38.6736 95.9183 38.3863C96.5628 38.0991 97.1463 37.6678 97.632 37.1198C98.1176 36.5717 98.495 35.9188 98.7402 35.2021C98.9854 34.4854 99.0932 33.7205 99.0567 32.9556H99.0479ZM132.605 20.591V44.0716C132.605 52.3753 126.728 55.8835 120.762 55.8835C118.662 56.0581 116.558 55.5924 114.683 54.5374C112.807 53.4823 111.231 51.8788 110.128 49.9024L115.87 46.2439C116.333 47.2754 117.071 48.1264 117.986 48.6832C118.9 49.2399 119.947 49.4758 120.986 49.3593C121.649 49.4591 122.325 49.3935 122.962 49.1674C123.599 48.9413 124.182 48.5605 124.668 48.0529C125.154 47.5454 125.53 46.9242 125.769 46.2351C126.008 45.5461 126.103 44.8067 126.048 44.0716V41.7975C125.259 42.8596 124.256 43.7033 123.118 44.2612C121.981 44.819 120.74 45.0755 119.496 45.0099C116.535 44.9085 113.726 43.5413 111.664 41.1979C109.602 38.8545 108.449 35.7188 108.449 32.455C108.449 29.1911 109.602 26.0555 111.664 23.712C113.726 21.3686 116.535 20.0014 119.496 19.9C120.74 19.8345 121.981 20.0909 123.118 20.6487C124.256 21.2066 125.259 22.0504 126.048 23.1124V20.591H132.605ZM126.056 32.4538C126.101 31.26 125.82 30.079 125.25 29.0625C124.68 28.046 123.848 27.2405 122.859 26.7495C121.87 26.2586 120.771 26.1046 119.702 26.3075C118.634 26.5103 117.645 27.0607 116.862 27.8879C116.08 28.715 115.54 29.7811 115.311 30.9491C115.083 32.1171 115.177 33.3335 115.582 34.442C115.986 35.5506 116.682 36.5005 117.581 37.1697C118.479 37.8389 119.539 38.1967 120.623 38.1972C121.33 38.252 122.04 38.1431 122.706 37.8776C123.373 37.6121 123.982 37.1958 124.493 36.6555C125.005 36.1152 125.409 35.4629 125.678 34.7405C125.947 34.0181 126.076 33.2416 126.056 32.461V32.4538ZM136.417 32.9386C136.41 30.3476 137.1 27.8123 138.401 25.6539C139.703 23.4956 141.556 21.8111 143.727 20.8139C145.898 19.8167 148.288 19.5515 150.596 20.052C152.903 20.5525 155.024 21.7962 156.69 23.6254C158.356 25.4547 159.491 27.7874 159.953 30.3281C160.414 32.8688 160.181 35.5033 159.283 37.8979C158.385 40.2926 156.861 42.3397 154.906 43.7801C152.951 45.2205 150.652 45.9893 148.3 45.9894C146.74 46.0077 145.191 45.6836 143.745 45.0358C142.3 44.388 140.985 43.4296 139.879 42.2164C138.773 41.0032 137.897 39.5595 137.303 37.9696C136.708 36.3796 136.407 34.6751 136.417 32.9556V32.9386ZM153.468 32.9386C153.442 31.8202 153.117 30.7351 152.534 29.8191C151.951 28.903 151.136 28.1967 150.19 27.7885C149.245 27.3803 148.211 27.2884 147.218 27.5242C146.226 27.76 145.318 28.3131 144.609 29.1142C143.901 29.9154 143.422 30.9291 143.234 32.0284C143.045 33.1277 143.155 34.2638 143.55 35.2946C143.944 36.3254 144.606 37.2051 145.452 37.8236C146.299 38.4421 147.292 38.7719 148.307 38.7718C149 38.7921 149.689 38.6545 150.331 38.3677C150.974 38.0809 151.555 37.6509 152.04 37.1049C152.524 36.5589 152.901 35.9085 153.147 35.1945C153.393 34.4805 153.502 33.7183 153.468 32.9556V32.9386Z" fill="white"/>
</svg>
