<svg width="218" height="65" viewBox="0 0 218 65" fill="none" xmlns="http://www.w3.org/2000/svg">
<path d="M17.9568 62.028L11.9976 50.6566L20.743 34.0142L26.3005 44.6197L59.107 44.6002L49.798 62.1849L17.9568 62.028Z" fill="#FFAD64"/>
<path d="M64.9646 33.3094L59.0054 44.6806L41.5505 44.658L47.1085 34.0528L30.6899 2.76196L49.1675 2.85128L64.9646 33.3094Z" fill="#ADD4D3"/>
<path d="M18.8747 2.70056H30.7931L39.5028 19.3659L28.3871 19.3654L11.9992 50.6757L2.83057 33.0017L18.8747 2.70056Z" fill="#FB8351"/>
<path fill-rule="evenodd" clip-rule="evenodd" d="M32.2463 0.0679267L32.2108 0H17.4668L0 32.9882L11.99 56.1008L12.0047 56.0729L16.5374 64.7221L51.2023 64.893L63.3759 41.8969H63.2949L67.792 33.3157L50.5939 0.15661L32.2463 0.0679267ZM43.6518 22.0671H43.7437L35.0767 5.48357L47.7413 5.54474L62.1375 33.3017L57.6314 41.9004L45.8226 41.9073L49.9399 34.0513L43.6518 22.0671ZM29.2438 5.4018L35.1536 16.665L26.9712 16.6647L12.9627 43.4288L12.0072 45.2472L5.6619 33.0157L20.2831 5.4018H29.2438ZM23.5619 33.992L29.8037 22.0667L37.9881 22.067L44.2772 34.0529L40.159 41.9108L27.7154 41.9182L23.5619 33.992ZM14.8338 50.6676L17.2085 46.1308L20.7398 39.4108L24.8853 47.3217L37.327 47.3143L37.3069 47.3527L54.7996 47.3755L48.3932 59.4772L19.3756 59.3342L14.8338 50.6676Z" fill="#333237"/>
<path d="M82.0712 55.4962V42.8514H77.8291V41.4319H87.9389V42.8514H83.6967V55.4962H82.0712Z" fill="white"/>
<path d="M92.4556 55.7151C90.7772 55.7151 89.5218 55.271 88.6893 54.383C87.8566 53.4949 87.4404 52.1263 87.4404 50.2771C87.4404 48.6175 87.7972 47.3144 88.5109 46.368C89.2376 45.4071 90.3809 44.9266 91.9403 44.9266C92.8653 44.9266 93.6251 45.1159 94.2199 45.4945C94.8277 45.8584 95.2772 46.368 95.5679 47.0232C95.8718 47.6638 96.0238 48.3918 96.0238 49.2071V51.1507H89.0659C89.1187 51.9369 89.2707 52.5557 89.5218 53.0071C89.7861 53.4584 90.1759 53.7859 90.6914 53.9899C91.2199 54.179 91.9139 54.2737 92.7728 54.2737C93.7375 54.2737 94.6229 54.0918 95.429 53.7277V55.1254C95.0194 55.3148 94.5568 55.4604 94.0415 55.5623C93.5392 55.6641 93.0107 55.7151 92.4556 55.7151ZM89.0659 49.8623H94.5767V49.0106C94.5767 48.166 94.3719 47.5182 93.9621 47.0669C93.5658 46.601 92.9049 46.368 91.9798 46.368C90.8566 46.368 90.0901 46.6592 89.6804 47.2416C89.2707 47.8239 89.0659 48.6975 89.0659 49.8623Z" fill="white"/>
<path d="M102.847 55.7151C101.208 55.7151 99.9921 55.2492 99.1992 54.3174C98.4063 53.3711 98.0098 52.0388 98.0098 50.3208C98.0098 48.5009 98.4591 47.147 99.3578 46.2589C100.256 45.3708 101.466 44.9266 102.985 44.9266C103.607 44.9266 104.122 44.9775 104.532 45.0796C104.941 45.1668 105.338 45.3124 105.721 45.5162V46.9358C105.007 46.5573 104.195 46.368 103.283 46.368C102.12 46.368 101.221 46.6738 100.587 47.2853C99.9524 47.8822 99.6353 48.894 99.6353 50.3208C99.6353 51.6894 99.9129 52.6941 100.468 53.3346C101.023 53.9608 101.941 54.2737 103.223 54.2737C104.135 54.2737 104.974 54.0845 105.741 53.7059V55.1473C105.331 55.3366 104.888 55.4748 104.413 55.5623C103.95 55.6641 103.428 55.7151 102.847 55.7151Z" fill="white"/>
<path d="M107.563 55.496V40.7766H109.188V46.2582C109.625 45.8651 110.133 45.5448 110.715 45.2973C111.31 45.0497 111.997 44.9259 112.776 44.9259C113.913 44.9259 114.765 45.2318 115.334 45.8433C115.902 46.4548 116.186 47.4157 116.186 48.7259V55.496H114.561V48.7915C114.561 47.8888 114.376 47.2628 114.006 46.9133C113.649 46.5494 113.054 46.3674 112.221 46.3674C111.693 46.3674 111.144 46.4983 110.576 46.7605C110.021 47.0079 109.559 47.3356 109.188 47.7432V55.496H107.563Z" fill="white"/>
<path d="M122.669 55.715C121.347 55.715 120.29 55.3947 119.497 54.7539C118.704 54.1133 118.308 53.2543 118.308 52.1769C118.308 51.1869 118.585 50.3352 119.14 49.6218C119.695 48.9084 120.455 48.275 121.42 47.7219C120.904 47.1541 120.468 46.6226 120.112 46.1276C119.755 45.6326 119.576 45.0356 119.576 44.3368C119.576 43.4632 119.847 42.7279 120.389 42.131C120.944 41.5195 121.724 41.2139 122.728 41.2139C123.706 41.2139 124.466 41.4977 125.008 42.0655C125.549 42.6333 125.821 43.3904 125.821 44.3368C125.821 45.123 125.629 45.7854 125.245 46.3242C124.862 46.8629 124.314 47.4088 123.6 47.9621L126.891 51.6528C127.115 51.1141 127.228 50.4298 127.228 49.5999V49.2942H128.517V49.5999C128.517 50.1679 128.457 50.721 128.338 51.2597C128.22 51.7984 128.047 52.2643 127.823 52.6574L129.607 54.6448L128.615 55.6275L127.029 53.9023C126.567 54.5283 125.966 54.987 125.226 55.2782C124.486 55.5694 123.633 55.715 122.669 55.715ZM122.589 47.0885C123.211 46.6663 123.68 46.266 123.997 45.8873C124.314 45.4942 124.473 44.9993 124.473 44.4024C124.473 43.849 124.334 43.4122 124.056 43.0919C123.792 42.7572 123.349 42.5897 122.728 42.5897C122.094 42.5897 121.631 42.7644 121.341 43.1138C121.063 43.4632 120.924 43.8928 120.924 44.4024C120.924 44.8683 121.07 45.2977 121.36 45.6908C121.664 46.0839 122.074 46.5498 122.589 47.0885ZM122.669 54.4264C123.435 54.4264 124.089 54.3026 124.631 54.0551C125.186 53.793 125.655 53.4073 126.039 52.8977L122.411 48.8137C121.552 49.2505 120.911 49.7237 120.488 50.2333C120.079 50.7283 119.874 51.3616 119.874 52.1334C119.874 52.8903 120.138 53.4655 120.667 53.8586C121.195 54.2371 121.863 54.4264 122.669 54.4264Z" fill="#FB8351"/>
<path d="M78.4697 31.2232V11.7495H83.6298V26.8687H91.5896V31.2232H78.4697Z" fill="#FB8351"/>
<path d="M99.8904 31.5257C97.2921 31.5257 95.3707 30.8906 94.1265 29.6206C92.9006 28.3506 92.2876 26.496 92.2876 24.0567C92.2876 21.6377 92.9097 19.7932 94.154 18.5231C95.3983 17.233 97.3104 16.5878 99.8904 16.5878C102.489 16.5878 104.41 17.233 105.654 18.5231C106.917 19.7932 107.548 21.6377 107.548 24.0567C107.548 26.496 106.926 28.3506 105.682 29.6206C104.438 30.8906 102.507 31.5257 99.8904 31.5257ZM99.8904 27.3829C100.732 27.3829 101.336 27.121 101.702 26.5967C102.086 26.0727 102.278 25.2259 102.278 24.0567C102.278 22.9078 102.086 22.0711 101.702 21.547C101.336 21.0026 100.732 20.7305 99.8904 20.7305C99.067 20.7305 98.4723 21.0026 98.1064 21.547C97.7404 22.0711 97.5574 22.9078 97.5574 24.0567C97.5574 25.2259 97.7404 26.0727 98.1064 26.5967C98.4723 27.121 99.067 27.3829 99.8904 27.3829Z" fill="#FB8351"/>
<path d="M115.191 36.5453C114.55 36.5453 113.855 36.5151 113.105 36.4546C112.354 36.4143 111.641 36.3336 110.964 36.2127C110.305 36.0918 109.756 35.9506 109.317 35.7893V32.1607C109.811 32.3421 110.378 32.4934 111.019 32.6143C111.677 32.7352 112.345 32.8259 113.022 32.8865C113.699 32.9469 114.321 32.9772 114.889 32.9772C115.858 32.9772 116.618 32.9167 117.167 32.7958C117.734 32.695 118.018 32.5034 118.018 32.2212C118.018 31.9794 117.926 31.818 117.743 31.7374C117.56 31.6768 117.213 31.6467 116.7 31.6467H113.269C111.934 31.6467 110.9 31.4149 110.168 30.9512C109.454 30.4674 109.097 29.7518 109.097 28.8042C109.097 27.4737 109.765 26.5464 111.101 26.0224C110.351 25.5989 109.802 25.0648 109.454 24.4196C109.106 23.7746 108.933 22.9581 108.933 21.9703C108.933 20.1157 109.5 18.7549 110.634 17.888C111.787 17.0213 113.443 16.5878 115.602 16.5878C116.06 16.5878 116.572 16.6281 117.139 16.7087C117.707 16.7693 118.118 16.8298 118.374 16.8902H123.48L123.37 20.3374H121.641C121.97 20.8011 122.135 21.3656 122.135 22.0308C122.135 23.5024 121.741 24.6717 120.954 25.5385C120.186 26.3851 118.969 26.8086 117.304 26.8086C117.066 26.8086 116.81 26.7985 116.535 26.7782C116.261 26.738 116.005 26.7078 115.767 26.6875C115.364 26.7279 115.017 26.8086 114.724 26.9295C114.431 27.0504 114.285 27.252 114.285 27.5342C114.285 27.7358 114.367 27.877 114.532 27.9575C114.697 28.018 114.925 28.0482 115.218 28.0482H118.21C119.546 28.0482 120.598 28.391 121.366 29.0764C122.135 29.7618 122.519 30.7697 122.519 32.1003C122.519 33.5114 121.924 34.5999 120.735 35.366C119.546 36.1522 117.698 36.5453 115.191 36.5453ZM115.63 23.694C116.435 23.694 116.993 23.5427 117.304 23.2403C117.615 22.9379 117.771 22.434 117.771 21.7285C117.771 21.0228 117.615 20.5087 117.304 20.1863C116.993 19.8638 116.435 19.7024 115.63 19.7024C114.88 19.7024 114.331 19.8638 113.983 20.1863C113.654 20.4886 113.489 21.0026 113.489 21.7285C113.489 22.4139 113.644 22.9178 113.955 23.2403C114.285 23.5427 114.843 23.694 115.63 23.694Z" fill="#FB8351"/>
<path d="M131.895 31.5257C129.296 31.5257 127.375 30.8906 126.131 29.6206C124.905 28.3506 124.292 26.496 124.292 24.0567C124.292 21.6377 124.914 19.7932 126.158 18.5231C127.402 17.233 129.315 16.5878 131.895 16.5878C134.493 16.5878 136.414 17.233 137.658 18.5231C138.922 19.7932 139.552 21.6377 139.552 24.0567C139.552 26.496 138.93 28.3506 137.686 29.6206C136.441 30.8906 134.511 31.5257 131.895 31.5257ZM131.895 27.3829C132.736 27.3829 133.34 27.121 133.706 26.5967C134.09 26.0727 134.283 25.2259 134.283 24.0567C134.283 22.9078 134.09 22.0711 133.706 21.547C133.34 21.0026 132.736 20.7305 131.895 20.7305C131.072 20.7305 130.476 21.0026 130.11 21.547C129.744 22.0711 129.562 22.9078 129.562 24.0567C129.562 25.2259 129.744 26.0727 130.11 26.5967C130.476 27.121 131.072 27.3829 131.895 27.3829Z" fill="#FB8351"/>
<path d="M141.82 14.9846V10.8721H147.392V14.9846H141.82ZM142.231 31.2227V21.0323H140.339L140.777 16.8897H147.392V31.2227H142.231Z" fill="white"/>
<path d="M149.867 37.7548V16.8902H154.342L154.589 18.0392C155.118 17.5756 155.695 17.2228 156.317 16.9809C156.958 16.7188 157.699 16.5878 158.541 16.5878C160.48 16.5878 161.972 17.132 163.015 18.2206C164.075 19.289 164.606 21.1135 164.606 23.6938C164.606 26.2541 164.048 28.1993 162.932 29.5299C161.816 30.8605 160.279 31.5256 158.321 31.5256C157.022 31.5256 155.924 31.2536 155.027 30.7092V37.7548H149.867ZM157.003 27.3829C157.754 27.3829 158.331 27.0906 158.733 26.506C159.136 25.9214 159.337 25.0143 159.337 23.7845C159.337 22.5952 159.144 21.7888 158.76 21.3655C158.394 20.9421 157.827 20.7305 157.058 20.7305C156.29 20.7305 155.613 21.0127 155.027 21.5772V26.6573C155.321 26.8991 155.613 27.0806 155.906 27.2015C156.198 27.3224 156.564 27.3829 157.003 27.3829Z" fill="white"/>
<path d="M171.483 31.5256C170.367 31.5256 169.315 31.435 168.327 31.2536C167.356 31.0922 166.589 30.8806 166.021 30.6185V26.5362C166.661 26.8589 167.421 27.1108 168.298 27.2922C169.196 27.4737 169.956 27.5644 170.576 27.5644C171.236 27.5644 171.73 27.5443 172.059 27.5039C172.408 27.4636 172.58 27.2922 172.58 26.9898C172.58 26.6472 172.279 26.3851 171.675 26.2036C171.072 26.0222 170.312 25.7601 169.397 25.4175C168.207 24.9538 167.319 24.4096 166.734 23.7845C166.149 23.1597 165.856 22.2525 165.856 21.063C165.856 19.6318 166.369 18.5332 167.394 17.7671C168.418 16.9809 170.028 16.5878 172.223 16.5878C173.065 16.5878 173.935 16.6583 174.831 16.7995C175.727 16.9405 176.432 17.1018 176.945 17.2833V21.2748C176.395 21.0127 175.792 20.8212 175.134 20.7003C174.493 20.5792 173.908 20.5188 173.377 20.5188C172.791 20.5188 172.269 20.549 171.812 20.6095C171.354 20.6699 171.126 20.8413 171.126 21.1236C171.126 21.4461 171.383 21.678 171.895 21.819C172.425 21.9602 173.13 22.1819 174.007 22.4843C174.997 22.8068 175.764 23.1597 176.314 23.5427C176.881 23.9257 177.274 24.3893 177.494 24.9336C177.731 25.478 177.851 26.1532 177.851 26.9597C177.851 28.4111 177.31 29.54 176.231 30.3463C175.169 31.1325 173.586 31.5256 171.483 31.5256Z" fill="white"/>
<path d="M184.501 31.525C182.982 31.525 181.793 31.0514 180.933 30.1039C180.074 29.1564 179.644 27.7654 179.644 25.9309V16.8896H184.804V25.4774C184.804 26.7272 185.38 27.3522 186.532 27.3522C186.953 27.3522 187.365 27.2514 187.768 27.0498C188.17 26.8483 188.49 26.5962 188.728 26.2938V16.8896H193.888V31.2227H189.058L188.921 30.1341C188.409 30.5372 187.777 30.87 187.027 31.1319C186.295 31.394 185.453 31.525 184.501 31.525Z" fill="white"/>
<path d="M196.346 31.2232V16.8902H201.121L201.258 18.0392C201.826 17.6159 202.457 17.2732 203.152 17.0111C203.866 16.7289 204.644 16.5878 205.486 16.5878C206.326 16.5878 206.986 16.7188 207.461 16.9809C207.938 17.2429 208.322 17.6259 208.614 18.1299C209.2 17.6663 209.859 17.2934 210.591 17.0111C211.34 16.7289 212.22 16.5878 213.226 16.5878C214.744 16.5878 215.861 17.0312 216.574 17.9182C217.288 18.7851 217.645 20.1157 217.645 21.9098V31.2232H212.566V22.575C212.566 21.9299 212.448 21.4764 212.21 21.2143C211.973 20.932 211.579 20.791 211.029 20.791C210.316 20.791 209.73 21.0732 209.274 21.6376C209.309 21.8997 209.328 22.1517 209.328 22.3936C209.328 22.6153 209.328 22.8673 209.328 23.1496V31.2232H204.552V22.4843C204.552 21.8997 204.461 21.4764 204.278 21.2143C204.094 20.932 203.747 20.791 203.235 20.791C202.887 20.791 202.549 20.8918 202.219 21.0934C201.889 21.2949 201.597 21.5368 201.341 21.819V31.2232H196.346Z" fill="white"/>
<path d="M138.011 55.8956C136.636 55.8956 135.493 55.6116 134.581 55.0438C133.683 54.4614 133.009 53.6533 132.56 52.6196C132.11 51.5715 131.886 50.3485 131.886 48.9508C131.886 47.4221 132.097 46.0898 132.52 44.9542C132.942 43.8186 133.603 42.945 134.502 42.3335C135.402 41.7075 136.563 41.3945 137.991 41.3945C138.731 41.3945 139.398 41.4526 139.993 41.5692C140.601 41.6857 141.169 41.8457 141.699 42.0497V43.6221C141.169 43.4037 140.608 43.2362 140.013 43.1197C139.418 42.9887 138.791 42.9232 138.13 42.9232C136.98 42.9232 136.068 43.1634 135.394 43.6439C134.721 44.1243 134.238 44.8158 133.947 45.7186C133.656 46.6213 133.51 47.6987 133.51 48.9508C133.51 50.6832 133.882 52.0228 134.621 52.9692C135.374 53.901 136.558 54.3669 138.169 54.3669C138.764 54.3669 139.365 54.3158 139.973 54.2139C140.594 54.112 141.169 53.9519 141.699 53.7335V55.3278C141.182 55.5025 140.621 55.6407 140.013 55.7427C139.418 55.8446 138.751 55.8956 138.011 55.8956Z" fill="white"/>
<path d="M148.373 55.895C146.734 55.895 145.538 55.4363 144.785 54.5191C144.045 53.5873 143.676 52.2478 143.676 50.5007C143.676 48.7681 144.053 47.4359 144.805 46.5041C145.558 45.5723 146.749 45.1064 148.373 45.1064C149.999 45.1064 151.189 45.5723 151.941 46.5041C152.695 47.4359 153.071 48.7681 153.071 50.5007C153.071 52.2478 152.702 53.5873 151.961 54.5191C151.222 55.4363 150.026 55.895 148.373 55.895ZM148.373 54.3663C149.496 54.3663 150.29 54.0604 150.752 53.4489C151.215 52.823 151.446 51.8402 151.446 50.5007C151.446 49.1612 151.209 48.1858 150.732 47.5743C150.27 46.9482 149.483 46.6351 148.373 46.6351C147.264 46.6351 146.47 46.9482 145.995 47.5743C145.533 48.1858 145.301 49.1612 145.301 50.5007C145.301 51.8402 145.533 52.823 145.995 53.4489C146.457 54.0604 147.25 54.3663 148.373 54.3663Z" fill="white"/>
<path d="M155.058 55.677V54.1702H156.525V55.677H155.058Z" fill="white"/>
</svg>
