<svg width="207" height="65" viewBox="0 0 207 65" fill="none" xmlns="http://www.w3.org/2000/svg">
<path d="M29.5 0C25.6261 0 21.7899 0.840728 18.2108 2.4739C14.6317 4.10726 11.3797 6.50111 8.6403 9.51897C5.90101 12.537 3.72813 16.1196 2.24554 20.0627C0.763123 24.0058 0 28.2321 0 32.5C0 36.7679 0.763123 40.9942 2.24554 44.9373C3.72813 48.8804 5.90101 52.463 8.6403 55.481C11.3797 58.4989 14.6317 60.8927 18.2108 62.5261C21.7899 64.1593 25.6261 65 29.5 65V48.75C27.5629 48.75 25.6449 48.3297 23.8554 47.513C22.0658 46.6964 20.4398 45.4994 19.0702 43.9905C17.7005 42.4816 16.6141 40.6902 15.8729 38.7186C15.1315 36.7471 14.75 34.634 14.75 32.5C14.75 30.366 15.1315 28.2529 15.8729 26.2814C16.6141 24.3098 17.7005 22.5184 19.0702 21.0095C20.4398 19.5006 22.0658 18.3036 23.8554 17.487C25.6449 16.6703 27.5629 16.25 29.5 16.25V0Z" fill="#0F52FF"/>
<path d="M29.4998 43.3333C34.9306 43.3333 39.3332 38.4831 39.3332 32.5C39.3332 26.5169 34.9306 21.6667 29.4998 21.6667C24.069 21.6667 19.6665 26.5169 19.6665 32.5C19.6665 38.4831 24.069 43.3333 29.4998 43.3333Z" fill="#0F52FF"/>
<path d="M0 32.5C0 36.7679 0.763123 40.9942 2.24554 44.9373C3.72813 48.8804 5.90101 52.463 8.6403 55.481C11.3797 58.4989 14.6317 60.8927 18.2108 62.5261C21.7899 64.1593 25.6261 65 29.5 65C33.3739 65 37.2101 64.1593 40.7892 62.5261C44.3683 60.8927 47.6203 58.4989 50.3597 55.481C53.099 52.463 55.2719 48.8804 56.7545 44.9373C58.2369 40.9942 59 36.7679 59 32.5H44.25C44.25 34.634 43.8685 36.7471 43.1271 38.7186C42.3859 40.6902 41.2995 42.4816 39.9298 43.9905C38.5602 45.4994 36.9342 46.6964 35.1446 47.513C33.3551 48.3297 31.4371 48.75 29.5 48.75C27.5629 48.75 25.6449 48.3297 23.8554 47.513C22.0658 46.6964 20.4398 45.4994 19.0702 43.9905C17.7005 42.4816 16.6141 40.6902 15.8729 38.7186C15.1315 36.7471 14.75 34.634 14.75 32.5H0Z" fill="#5BD0F4"/>
<path d="M39.3332 32.5001C39.3332 29.627 38.2972 26.8715 36.4532 24.8398C34.609 22.8081 32.1079 21.6667 29.5 21.6667C26.892 21.6667 24.3909 22.8081 22.5467 24.8398C20.7025 26.8715 19.6665 29.627 19.6665 32.5001H29.5H39.3332Z" fill="#5BD0F4"/>
<path d="M74.4066 20.2892H70.7427V42.7142H74.4066V20.2892Z" fill="#0F52FF"/>
<path d="M76.7993 34.77C76.7993 39.9598 80.0561 43.1634 84.3597 43.1634C88.6634 43.1634 91.9202 39.9598 91.9202 34.77C91.9202 29.5802 88.6634 26.3766 84.3597 26.3766C80.0561 26.3766 76.7993 29.5802 76.7993 34.77ZM80.4632 34.77C80.4632 31.6946 82.0916 29.9006 84.3597 29.9006C86.6279 29.9006 88.2563 31.6946 88.2563 34.77C88.2563 37.8454 86.6279 39.6394 84.3597 39.6394C82.0916 39.6394 80.4632 37.8454 80.4632 34.77Z" fill="#0F52FF"/>
<path d="M105.013 26.8251V28.9715H104.722C103.85 27.594 102.454 26.3766 99.9536 26.3766C96.5223 26.3766 93.4399 29.5802 93.4399 34.5137C93.4399 39.4472 96.5223 42.6508 99.9536 42.6508C102.454 42.6508 103.85 41.4013 104.664 40.152H104.955V41.6897C104.955 44.7652 103.327 46.1747 100.942 46.1747C98.5578 46.1747 97.3365 44.7652 96.8421 42.939L93.5563 44.5089C94.3123 46.9114 96.5223 49.5705 101 49.5705C105.595 49.5705 108.619 46.9114 108.619 41.7857V26.8251H105.013ZM101.059 39.1909C98.7904 39.1909 97.1038 37.3969 97.1038 34.5137C97.1038 31.6305 98.7904 29.8365 101.059 29.8365C103.327 29.8365 105.013 31.6305 105.013 34.5137C105.013 37.3969 103.327 39.1909 101.059 39.1909Z" fill="#0F52FF"/>
<path d="M110.989 34.77C110.989 39.9598 114.246 43.1634 118.55 43.1634C122.853 43.1634 126.11 39.9598 126.11 34.77C126.11 29.5802 122.853 26.3766 118.55 26.3766C114.246 26.3766 110.989 29.5802 110.989 34.77ZM114.653 34.77C114.653 31.6946 116.282 29.9006 118.55 29.9006C120.818 29.9006 122.446 31.6946 122.446 34.77C122.446 37.8454 120.818 39.6394 118.55 39.6394C116.282 39.6394 114.653 37.8454 114.653 34.77Z" fill="#0F52FF"/>
<path d="M128.986 22.2114C128.986 23.8453 130.12 24.9664 131.575 24.9664C133.028 24.9664 134.163 23.8453 134.163 22.2114C134.163 20.5776 133.028 19.4563 131.575 19.4563C130.12 19.4563 128.986 20.5776 128.986 22.2114ZM133.406 26.8245H129.743V42.7142H133.406V26.8245Z" fill="#5BD0F4"/>
<path d="M136.671 49.122H140.336V40.6646H140.626C141.44 41.946 142.836 43.1634 145.337 43.1634C148.768 43.1634 151.851 39.9598 151.851 34.77C151.851 29.5802 148.768 26.3766 145.337 26.3766C142.836 26.3766 141.44 27.594 140.568 28.9716H140.277V26.8251H136.671V49.122ZM144.231 39.7035C141.964 39.7035 140.277 37.9095 140.277 34.77C140.277 31.6305 141.964 29.8365 144.231 29.8365C146.5 29.8365 148.186 31.6305 148.186 34.77C148.186 37.9095 146.5 39.7035 144.231 39.7035Z" fill="#5BD0F4"/>
<path d="M153.989 31.2782C153.989 34.4177 156.372 35.571 159.396 36.2117L160.153 36.3718C161.955 36.7562 162.769 37.2368 162.769 38.262C162.769 39.2871 161.955 40.0879 160.27 40.0879C158.582 40.0879 157.217 39.3191 156.837 37.0125L153.464 37.9736C153.96 41.3053 156.489 43.1634 160.27 43.1634C163.933 43.1634 166.318 41.2733 166.318 37.9416C166.318 34.6097 163.875 33.7129 160.619 33.0081L159.862 32.8479C158.35 32.5275 157.535 32.079 157.535 31.0219C157.535 30.0608 158.292 29.4521 159.688 29.4521C161.084 29.4521 162.072 30.0928 162.421 31.8227L165.736 30.7016C165.038 28.1387 162.916 26.3766 159.688 26.3766C156.256 26.3766 153.989 28.1387 153.989 31.2782Z" fill="#5BD0F4"/>
<path d="M182.775 42.7142V26.8245H179.112V35.0256C179.112 37.9729 177.804 39.7028 175.564 39.7028C173.586 39.7028 172.482 38.5176 172.482 36.1148V26.8245H168.817V36.307C168.817 40.2475 171.058 42.9705 174.431 42.9705C177.076 42.9705 178.298 41.689 178.879 40.3435H179.169V42.7142H182.775Z" fill="#5BD0F4"/>
<path d="M186.025 26.8248V42.7145H189.69V33.2319C189.69 31.0535 190.621 29.8361 192.306 29.8361C193.761 29.8361 194.633 30.7331 194.633 32.4631V42.7145H198.297V33.2319C198.297 31.0535 199.228 29.8361 200.914 29.8361C202.368 29.8361 203.24 30.7331 203.24 32.4631V42.7145H206.905V32.2708C206.905 28.4266 204.752 26.5685 202.077 26.5685C199.722 26.5685 198.646 27.7218 197.948 29.0673H197.657C196.988 27.5617 195.796 26.5685 193.702 26.5685C191.608 26.5685 190.474 27.5936 189.923 28.811H189.631V26.8248H186.025Z" fill="#5BD0F4"/>
</svg>
